<svg version="1.1" xmlns="http://www.w3.org/2000/svg" viewBox="0 0 1094.5 232" width="1094.5" height="232" filter="invert(93%) hue-rotate(180deg)">
  <!-- svg-source:excalidraw -->
  
  <defs>
    <style class="style-fonts">
      @font-face {
        font-family: "Virgil";
        src: url("https://excalidraw.com/Virgil.woff2");
      }
      @font-face {
        font-family: "Cascadia";
        src: url("https://excalidraw.com/Cascadia.woff2");
      }
      @font-face {
        font-family: "Assistant";
        src: url("https://excalidraw.com/Assistant-Regular.woff2");
      }
    </style>
    
  </defs>
  <rect x="0" y="0" width="1094.5" height="232" fill="#ffffff"></rect><g stroke-linecap="round" transform="translate(10 16) rotate(0 150.5 103)"><path d="M32 0 C123.09 -0.86, 212.57 1.09, 269 0 M32 0 C82.98 -0.9, 134.68 -2.16, 269 0 M269 0 C291.37 0.61, 300.13 8.73, 301 32 M269 0 C288.33 -1.61, 299.11 9.05, 301 32 M301 32 C301.42 76.05, 302.42 123.33, 301 174 M301 32 C300.64 68.37, 300.66 106.6, 301 174 M301 174 C299.87 195.48, 288.89 205.09, 269 206 M301 174 C301.74 193.25, 288.15 204.89, 269 206 M269 206 C193.62 205.59, 118.52 206.31, 32 206 M269 206 C195.55 205.16, 122.91 204.96, 32 206 M32 206 C11.06 204.91, -1.85 196.69, 0 174 M32 206 C9.93 203.81, 0.57 196.99, 0 174 M0 174 C1.37 144.92, 1 115.97, 0 32 M0 174 C-0.08 121.21, 0.23 67.82, 0 32 M0 32 C1.33 12.36, 10.2 0, 32 0 M0 32 C1.62 11.01, 12.32 -0.97, 32 0" stroke="#1e1e1e" stroke-width="2" fill="none"></path></g><g transform="translate(137.77001190185547 106.5) rotate(0 22.72998809814453 12.5)"><text x="22.72998809814453" y="0" font-family="Virgil, Segoe UI Emoji" font-size="20px" fill="#1e1e1e" text-anchor="middle" style="white-space: pre;" direction="ltr" dominant-baseline="text-before-edge">Goal</text></g><g stroke-linecap="round" transform="translate(783.5 10) rotate(0 150.5 103)"><path d="M32 0 C90.06 -2.27, 149.4 -2.79, 269 0 M32 0 C113.62 1.83, 193.61 1.32, 269 0 M269 0 C290.75 -0.31, 299.96 12.21, 301 32 M269 0 C292.15 -0.48, 301.41 11.59, 301 32 M301 32 C299.03 86.47, 298.77 139.22, 301 174 M301 32 C302.36 80.48, 302.57 127.22, 301 174 M301 174 C299.94 196.98, 291.96 204.22, 269 206 M301 174 C298.73 195.39, 289.12 207.31, 269 206 M269 206 C175.47 205.55, 82.38 205.4, 32 206 M269 206 C196.54 206.76, 124.28 205.62, 32 206 M32 206 C11.7 206.59, -1.28 194.27, 0 174 M32 206 C12.18 207.45, -0.12 194.31, 0 174 M0 174 C1.58 125.45, 0.12 77.41, 0 32 M0 174 C-0.42 128.04, 0.6 82.9, 0 32 M0 32 C0.4 9.1, 10.47 1.48, 32 0 M0 32 C1.62 11.15, 8.38 -1.39, 32 0" stroke="#1e1e1e" stroke-width="2" fill="none"></path></g><g transform="translate(913.4200134277344 100.5) rotate(0 20.579986572265625 12.5)"><text x="20.579986572265625" y="0" font-family="Virgil, Segoe UI Emoji" font-size="20px" fill="#1e1e1e" text-anchor="middle" style="white-space: pre;" direction="ltr" dominant-baseline="text-before-edge">Plan</text></g><g stroke-linecap="round" transform="translate(398.5 12) rotate(0 150.5 103)"><path d="M32 0 C122.99 -1.26, 215.98 0.76, 269 0 M269 0 C289.73 1.09, 302.37 9.71, 301 32 M301 32 C302.92 83.93, 302.43 133.58, 301 174 M301 174 C300.73 196.54, 291.3 205.49, 269 206 M269 206 C197.08 204.95, 121.04 203.74, 32 206 M32 206 C11.69 207.48, -0.86 194.2, 0 174 M0 174 C2.32 139.44, 1.94 101.21, 0 32 M0 32 C-0.97 10.2, 9.16 0.81, 32 0" stroke="#1e1e1e" stroke-width="2.5" fill="none" stroke-dasharray="8 10"></path></g><g transform="translate(535.0200119018555 102.5) rotate(0 13.979988098144531 12.5)"><text x="13.979988098144531" y="0" font-family="Virgil, Segoe UI Emoji" font-size="20px" fill="#1e1e1e" text-anchor="middle" style="white-space: pre;" direction="ltr" dominant-baseline="text-before-edge">???</text></g><g stroke-linecap="round"><g transform="translate(315 114.09774362498081) rotate(0 41.25 1.912679193975407)"><path d="M-0.25 -0.11 C13.23 0.53, 67.98 3.6, 81.6 4.22 M1.82 -1.21 C15.61 -0.98, 70.18 1.29, 83.84 2.3" stroke="#1e1e1e" stroke-width="1" fill="none"></path></g><g transform="translate(315 114.09774362498081) rotate(0 41.25 1.912679193975407)"><path d="M59.92 9.55 C68.34 5.49, 77.8 2.65, 83.84 2.3 M59.92 9.55 C66.98 8.28, 73.17 5.54, 83.84 2.3" stroke="#1e1e1e" stroke-width="1" fill="none"></path></g><g transform="translate(315 114.09774362498081) rotate(0 41.25 1.912679193975407)"><path d="M60.85 -7.52 C69 -5.43, 78.12 -2.12, 83.84 2.3 M60.85 -7.52 C67.81 -3.95, 73.74 -1.85, 83.84 2.3" stroke="#1e1e1e" stroke-width="1" fill="none"></path></g></g><mask></mask><g stroke-linecap="round"><g transform="translate(704 113.78562893362061) rotate(0 39 -0.31857779499648586)"><path d="M0.99 0.11 C13.82 0.09, 64.34 -0.58, 77.16 -0.61 M0.06 -0.88 C13.24 -0.65, 66.58 1.15, 79.43 0.94" stroke="#1e1e1e" stroke-width="1" fill="none"></path></g><g transform="translate(704 113.78562893362061) rotate(0 39 -0.31857779499648586)"><path d="M55.83 9.2 C63.56 4.97, 70.94 3.62, 79.43 0.94 M55.83 9.2 C64.6 7.14, 71.28 3.64, 79.43 0.94" stroke="#1e1e1e" stroke-width="1" fill="none"></path></g><g transform="translate(704 113.78562893362061) rotate(0 39 -0.31857779499648586)"><path d="M56.04 -7.9 C63.64 -6.68, 70.95 -2.58, 79.43 0.94 M56.04 -7.9 C64.82 -4.04, 71.42 -1.63, 79.43 0.94" stroke="#1e1e1e" stroke-width="1" fill="none"></path></g></g><mask></mask></svg>